<svg width="366" height="35" viewBox="0 0 366 35" fill="none" xmlns="http://www.w3.org/2000/svg">
<path d="M10.8 -2.38419e-06V24.25C10.8 25.75 10.5167 27.15 9.95 28.45C9.38333 29.75 8.6 30.8833 7.6 31.85C6.63333 32.8167 5.5 33.5833 4.2 34.15C2.9 34.7167 1.5 35 7.07805e-08 35V26.95C0.766667 26.95 1.4 26.6833 1.9 26.15C2.43333 25.6167 2.7 24.9833 2.7 24.25V-2.38419e-06H10.8ZM39.693 24.25C39.693 25.75 39.4096 27.15 38.843 28.45C38.2763 29.75 37.5096 30.8833 36.543 31.85C35.5763 32.8167 34.443 33.5833 33.143 34.15C31.843 34.7167 30.443 35 28.943 35H23.543C22.043 35 20.643 34.7167 19.343 34.15C18.043 33.5833 16.9096 32.8167 15.943 31.85C14.9763 30.8833 14.2096 29.75 13.643 28.45C13.0763 27.15 12.793 25.75 12.793 24.25V-2.38419e-06H20.843V24.25C20.843 24.9833 21.093 25.6167 21.593 26.15C22.1263 26.6833 22.7763 26.95 23.543 26.95H28.943C29.7096 26.95 30.343 26.6833 30.843 26.15C31.3763 25.6167 31.643 24.9833 31.643 24.25V-2.38419e-06H39.693V24.25ZM60.5492 35L55.1492 14.9L49.7492 35H41.6992L51.0492 -2.38419e-06H51.1492H59.1492H59.2492L68.5992 35H60.5492ZM70.6055 10.75C70.6055 9.25 70.8888 7.85 71.4555 6.55C72.0221 5.25 72.7888 4.11666 73.7555 3.15C74.7221 2.18333 75.8555 1.41667 77.1555 0.849999C78.4555 0.283331 79.8555 -2.38419e-06 81.3555 -2.38419e-06H86.7555C88.2555 -2.38419e-06 89.6555 0.283331 90.9555 0.849999C92.2555 1.41667 93.3888 2.18333 94.3555 3.15C95.3221 4.11666 96.0888 5.25 96.6555 6.55C97.2221 7.85 97.5055 9.25 97.5055 10.75V35H89.4555V10.75C89.4555 10.0167 89.1888 9.38333 88.6555 8.85C88.1555 8.31667 87.5221 8.05 86.7555 8.05H81.3555C80.5888 8.05 79.9388 8.31667 79.4055 8.85C78.9055 9.38333 78.6555 10.0167 78.6555 10.75V35H70.6055V10.75ZM133.82 -2.38419e-06C135.32 -2.38419e-06 136.72 0.283331 138.02 0.849999C139.32 1.41667 140.454 2.18333 141.42 3.15C142.387 4.11666 143.154 5.25 143.72 6.55C144.287 7.85 144.57 9.25 144.57 10.75V35H136.52V10.75C136.52 10.0167 136.254 9.4 135.72 8.9C135.22 8.36666 134.587 8.1 133.82 8.1C133.054 8.1 132.404 8.36666 131.87 8.9C131.37 9.4 131.12 10.0167 131.12 10.75V35H123.07V10.75C123.07 10.0167 122.804 9.4 122.27 8.9C121.77 8.36666 121.137 8.1 120.37 8.1C119.604 8.1 118.954 8.36666 118.42 8.9C117.92 9.4 117.67 10.0167 117.67 10.75V35H109.57V10.75C109.57 9.25 109.854 7.85 110.42 6.55C110.987 5.25 111.754 4.11666 112.72 3.15C113.72 2.18333 114.87 1.41667 116.17 0.849999C117.47 0.283331 118.87 -2.38419e-06 120.37 -2.38419e-06C121.637 -2.38419e-06 122.837 0.216664 123.97 0.649998C125.137 1.05 126.17 1.61667 127.07 2.35C128.004 1.61667 129.037 1.05 130.17 0.649998C131.337 0.216664 132.554 -2.38419e-06 133.82 -2.38419e-06ZM165.432 35L160.032 14.9L154.632 35H146.582L155.932 -2.38419e-06H156.032H164.032H164.132L173.482 35H165.432ZM192.336 26.95V35H184.236C182.736 35 181.336 34.7167 180.036 34.15C178.736 33.5833 177.603 32.8167 176.636 31.85C175.67 30.8833 174.903 29.75 174.336 28.45C173.77 27.15 173.486 25.75 173.486 24.25V-2.38419e-06H181.586V24.25C181.586 24.9833 181.836 25.6167 182.336 26.15C182.87 26.6833 183.503 26.95 184.236 26.95H192.336ZM221.236 24.25C221.236 25.75 220.953 27.15 220.386 28.45C219.819 29.75 219.053 30.8833 218.086 31.85C217.119 32.8167 215.986 33.5833 214.686 34.15C213.386 34.7167 211.986 35 210.486 35H202.386H194.336V-2.38419e-06H202.386H210.486C211.986 -2.38419e-06 213.386 0.283331 214.686 0.849999C215.986 1.41667 217.119 2.18333 218.086 3.15C219.053 4.11666 219.819 5.25 220.386 6.55C220.953 7.85 221.236 9.25 221.236 10.75V24.25ZM213.186 10.75C213.186 10.0167 212.919 9.4 212.386 8.9C211.886 8.36666 211.253 8.1 210.486 8.1H202.386V26.95H210.486C211.253 26.95 211.886 26.6833 212.386 26.15C212.919 25.6167 213.186 24.9833 213.186 24.25V10.75ZM239.392 -2.38419e-06C240.892 -2.38419e-06 242.292 0.283331 243.592 0.849999C244.892 1.41667 246.026 2.18333 246.992 3.15C247.959 4.11666 248.726 5.25 249.292 6.55C249.859 7.85 250.142 9.25 250.142 10.75V24.25C250.142 25.75 249.859 27.15 249.292 28.45C248.726 29.75 247.959 30.8833 246.992 31.85C246.026 32.8167 244.892 33.5833 243.592 34.15C242.292 34.7167 240.892 35 239.392 35H233.992C232.492 35 231.092 34.7167 229.792 34.15C228.492 33.5833 227.359 32.8167 226.392 31.85C225.426 30.8833 224.659 29.75 224.092 28.45C223.526 27.15 223.242 25.75 223.242 24.25V10.75C223.242 9.25 223.526 7.85 224.092 6.55C224.659 5.25 225.426 4.11666 226.392 3.15C227.359 2.18333 228.492 1.41667 229.792 0.849999C231.092 0.283331 232.492 -2.38419e-06 233.992 -2.38419e-06H239.392ZM242.092 10.75C242.092 10.0167 241.826 9.4 241.292 8.9C240.792 8.36666 240.159 8.1 239.392 8.1H233.992C233.226 8.1 232.576 8.36666 232.042 8.9C231.542 9.4 231.292 10.0167 231.292 10.75V24.25C231.292 24.9833 231.542 25.6167 232.042 26.15C232.576 26.6833 233.226 26.95 233.992 26.95H239.392C240.159 26.95 240.792 26.6833 241.292 26.15C241.826 25.6167 242.092 24.9833 242.092 24.25V10.75ZM252.148 10.75C252.148 9.25 252.432 7.85 252.998 6.55C253.565 5.25 254.332 4.11666 255.298 3.15C256.265 2.18333 257.398 1.41667 258.698 0.849999C259.998 0.283331 261.398 -2.38419e-06 262.898 -2.38419e-06H268.298C269.798 -2.38419e-06 271.198 0.283331 272.498 0.849999C273.798 1.41667 274.932 2.18333 275.898 3.15C276.865 4.11666 277.632 5.25 278.198 6.55C278.765 7.85 279.048 9.25 279.048 10.75V35H270.998V10.75C270.998 10.0167 270.732 9.38333 270.198 8.85C269.698 8.31667 269.065 8.05 268.298 8.05H262.898C262.132 8.05 261.482 8.31667 260.948 8.85C260.448 9.38333 260.198 10.0167 260.198 10.75V35H252.148V10.75ZM299.905 35L294.505 14.9L289.105 35H281.055L290.405 -2.38419e-06H290.505H298.505H298.605L307.955 35H299.905ZM336.861 24.25C336.861 25.75 336.578 27.15 336.011 28.45C335.444 29.75 334.678 30.8833 333.711 31.85C332.744 32.8167 331.611 33.5833 330.311 34.15C329.011 34.7167 327.611 35 326.111 35H318.011H309.961V-2.38419e-06H318.011H326.111C327.611 -2.38419e-06 329.011 0.283331 330.311 0.849999C331.611 1.41667 332.744 2.18333 333.711 3.15C334.678 4.11666 335.444 5.25 336.011 6.55C336.578 7.85 336.861 9.25 336.861 10.75V24.25ZM328.811 10.75C328.811 10.0167 328.544 9.4 328.011 8.9C327.511 8.36666 326.878 8.1 326.111 8.1H318.011V26.95H326.111C326.878 26.95 327.511 26.6833 328.011 26.15C328.544 25.6167 328.811 24.9833 328.811 24.25V10.75ZM355.017 -2.38419e-06C356.517 -2.38419e-06 357.917 0.283331 359.217 0.849999C360.517 1.41667 361.651 2.18333 362.617 3.15C363.584 4.11666 364.351 5.25 364.917 6.55C365.484 7.85 365.767 9.25 365.767 10.75V24.25C365.767 25.75 365.484 27.15 364.917 28.45C364.351 29.75 363.584 30.8833 362.617 31.85C361.651 32.8167 360.517 33.5833 359.217 34.15C357.917 34.7167 356.517 35 355.017 35H349.617C348.117 35 346.717 34.7167 345.417 34.15C344.117 33.5833 342.984 32.8167 342.017 31.85C341.051 30.8833 340.284 29.75 339.717 28.45C339.151 27.15 338.867 25.75 338.867 24.25V10.75C338.867 9.25 339.151 7.85 339.717 6.55C340.284 5.25 341.051 4.11666 342.017 3.15C342.984 2.18333 344.117 1.41667 345.417 0.849999C346.717 0.283331 348.117 -2.38419e-06 349.617 -2.38419e-06H355.017ZM357.717 10.75C357.717 10.0167 357.451 9.4 356.917 8.9C356.417 8.36666 355.784 8.1 355.017 8.1H349.617C348.851 8.1 348.201 8.36666 347.667 8.9C347.167 9.4 346.917 10.0167 346.917 10.75V24.25C346.917 24.9833 347.167 25.6167 347.667 26.15C348.201 26.6833 348.851 26.95 349.617 26.95H355.017C355.784 26.95 356.417 26.6833 356.917 26.15C357.451 25.6167 357.717 24.9833 357.717 24.25V10.75Z" fill="white"/>
</svg>
