<svg width="1080" height="1080" viewBox="0 0 1080 1080" fill="none" xmlns="http://www.w3.org/2000/svg">
<rect width="1080" height="1079.84" fill="white"/>
<path d="M76.7066 966.144C70.5074 966.144 61.8331 966.144 53.0452 966.144H0.113649V1079.84H1080V406.854H989.374V290.931L681.072 638.018L471.275 406.695V864.322H369.363V211.908H445.457L680.981 475.045L920.683 211.953H793.384V110.064H1079.89V0H0V864.322H58.5405C96.871 864.322 124.234 855.239 142.218 836.347C160.203 817.454 168.741 789.183 168.741 749.376V508.675H270.676V770.903C270.744 905.037 170.103 966.144 76.7066 966.144ZM168.173 406.854V290.931H270.857V406.854H168.173Z" fill="#282832"/>
</svg>
